<svg xmlns="http://www.w3.org/2000/svg" width="1200" height="750" viewBox="0 0 1200 750" role="img" aria-labelledby="title desc">
  <title id="title">Anonymized risk intelligence dashboard layout diagram</title>
  <desc id="desc">Abstract layout showing a left navigation rail, summary strip, and modular widget grid. No confidential data is shown.</desc>
  <rect width="1200" height="750" fill="#F3F0E8"/>
  <rect x="40" y="40" width="220" height="670" rx="12" fill="#FBF9F4" stroke="#CFC9BC"/>
  <rect x="70" y="80" width="100" height="18" rx="4" fill="#007F73"/>
  <rect x="70" y="130" width="160" height="12" rx="3" fill="#CFC9BC"/>
  <rect x="70" y="160" width="140" height="12" rx="3" fill="#CFC9BC"/>
  <rect x="70" y="190" width="150" height="12" rx="3" fill="#CFC9BC"/>
  <rect x="70" y="220" width="120" height="12" rx="3" fill="#CFC9BC"/>
  <rect x="290" y="40" width="870" height="90" rx="12" fill="#FBF9F4" stroke="#CFC9BC"/>
  <rect x="320" y="70" width="180" height="14" rx="3" fill="#11161D"/>
  <rect x="320" y="96" width="320" height="10" rx="3" fill="#CFC9BC"/>
  <rect x="290" y="160" width="270" height="240" rx="12" fill="#FBF9F4" stroke="#CFC9BC"/>
  <rect x="580" y="160" width="270" height="240" rx="12" fill="#FBF9F4" stroke="#CFC9BC"/>
  <rect x="870" y="160" width="290" height="240" rx="12" fill="#FBF9F4" stroke="#CFC9BC"/>
  <rect x="320" y="200" width="120" height="10" rx="3" fill="#007F73"/>
  <rect x="320" y="230" width="200" height="8" rx="3" fill="#CFC9BC"/>
  <rect x="320" y="250" width="180" height="8" rx="3" fill="#CFC9BC"/>
  <rect x="320" y="300" width="210" height="60" rx="8" fill="#D8EFEB"/>
  <rect x="610" y="200" width="140" height="10" rx="3" fill="#C95F35"/>
  <rect x="610" y="230" width="190" height="8" rx="3" fill="#CFC9BC"/>
  <rect x="610" y="250" width="170" height="8" rx="3" fill="#CFC9BC"/>
  <rect x="610" y="300" width="210" height="60" rx="8" fill="#E9E5DB"/>
  <rect x="900" y="200" width="130" height="10" rx="3" fill="#11161D"/>
  <rect x="900" y="230" width="200" height="8" rx="3" fill="#CFC9BC"/>
  <rect x="900" y="250" width="180" height="8" rx="3" fill="#CFC9BC"/>
  <rect x="900" y="300" width="220" height="60" rx="8" fill="#D8EFEB"/>
  <rect x="290" y="430" width="870" height="280" rx="12" fill="#FBF9F4" stroke="#CFC9BC"/>
  <rect x="320" y="470" width="200" height="12" rx="3" fill="#11161D"/>
  <rect x="320" y="510" width="800" height="10" rx="3" fill="#CFC9BC"/>
  <rect x="320" y="540" width="760" height="10" rx="3" fill="#CFC9BC"/>
  <rect x="320" y="570" width="720" height="10" rx="3" fill="#CFC9BC"/>
  <rect x="320" y="620" width="260" height="50" rx="8" fill="#E9E5DB"/>
  <rect x="600" y="620" width="260" height="50" rx="8" fill="#D8EFEB"/>
  <rect x="880" y="620" width="240" height="50" rx="8" fill="#E9E5DB"/>
</svg>
