<svg xmlns="http://www.w3.org/2000/svg" width="1200" height="750" viewBox="0 0 1200 750" role="img" aria-labelledby="title desc">
  <title id="title">Anonymized design system inventory diagram</title>
  <desc id="desc">Abstract component inventory showing tokens, controls, and composition blocks. No confidential data.</desc>
  <rect width="1200" height="750" fill="#F3F0E8"/>
  <rect x="40" y="40" width="1120" height="70" rx="12" fill="#FBF9F4" stroke="#CFC9BC"/>
  <rect x="70" y="65" width="220" height="16" rx="4" fill="#11161D"/>
  <rect x="70" y="95" width="360" height="8" rx="3" fill="#CFC9BC"/>
  <rect x="40" y="140" width="360" height="570" rx="12" fill="#FBF9F4" stroke="#CFC9BC"/>
  <rect x="430" y="140" width="360" height="270" rx="12" fill="#FBF9F4" stroke="#CFC9BC"/>
  <rect x="820" y="140" width="340" height="270" rx="12" fill="#FBF9F4" stroke="#CFC9BC"/>
  <rect x="430" y="440" width="730" height="270" rx="12" fill="#FBF9F4" stroke="#CFC9BC"/>
  <rect x="70" y="180" width="180" height="12" rx="3" fill="#11161D"/>
  <rect x="70" y="220" width="280" height="10" rx="3" fill="#CFC9BC"/>
  <rect x="70" y="250" width="250" height="10" rx="3" fill="#CFC9BC"/>
  <rect x="70" y="300" width="300" height="70" rx="8" fill="#E9E5DB"/>
  <rect x="70" y="400" width="300" height="70" rx="8" fill="#D8EFEB"/>
  <rect x="70" y="500" width="300" height="70" rx="8" fill="#E9E5DB"/>
  <rect x="460" y="180" width="160" height="12" rx="3" fill="#11161D"/>
  <rect x="460" y="220" width="280" height="10" rx="3" fill="#CFC9BC"/>
  <rect x="460" y="250" width="240" height="10" rx="3" fill="#CFC9BC"/>
  <rect x="460" y="300" width="300" height="70" rx="8" fill="#D8EFEB"/>
  <rect x="850" y="180" width="150" height="12" rx="3" fill="#11161D"/>
  <rect x="850" y="220" width="260" height="10" rx="3" fill="#CFC9BC"/>
  <rect x="850" y="300" width="280" height="70" rx="8" fill="#E9E5DB"/>
  <rect x="460" y="480" width="200" height="12" rx="3" fill="#11161D"/>
  <rect x="460" y="520" width="640" height="10" rx="3" fill="#CFC9BC"/>
  <rect x="460" y="550" width="600" height="10" rx="3" fill="#CFC9BC"/>
  <rect x="460" y="600" width="200" height="50" rx="8" fill="#D8EFEB"/>
  <rect x="690" y="600" width="200" height="50" rx="8" fill="#E9E5DB"/>
  <rect x="920" y="600" width="200" height="50" rx="8" fill="#D8EFEB"/>
</svg>
